# xmcd
#
# Track frame offsets:
#	182
#	15060
#	27392
#	43627
#	58207
#	72015
#	87165
#	100052
#	114192
#	129702
#	143487
#	157900
#	173590
#	191775
#	206870
#	222212
#	237907
#	257415
#
# Disc length: 3672 seconds
#
# Revision: 3
# Processed by: cddbd v1.5.2PL0 Copyright (c) Steve Scherf et al.
# Submitted via: EasyCDDAExtractor 12.0.0.1
#
DISCID=ea0e5612
DTITLE=Helen Reddy - Original Hits
DYEAR=1995
DGENRE=Easy Listening
TTITLE0=I Don't Know How To Love Him
TTITLE1=You're My World
TTITLE2=The Masquerade
TTITLE3=Raised On Rock
TTITLE4=Where Is The Love
TTITLE5=I Am Woman
TTITLE6=Peaceful
TTITLE7=Delta Dawn
TTITLE8=Leave Me Alone (Ruby Red Dress)
TTITLE9=Keep On Singing
TTITLE10=You And Me Against The World
TTITLE11=Angie Baby
TTITLE12=And I Love You So
TTITLE13=Lady Of The Night
TTITLE14=Ain't No Way To Treat A Lady
TTITLE15=Somewhere In The Night
TTITLE16=Come On John
TTITLE17=The Happy Girls
EXTD=
EXTT0=
EXTT1=
EXTT2=
EXTT3=
EXTT4=
EXTT5=
EXTT6=
EXTT7=
EXTT8=
EXTT9=
EXTT10=
EXTT11=
EXTT12=
EXTT13=
EXTT14=
EXTT15=
EXTT16=
EXTT17=
PLAYORDER=
